HIERARCHY
ROOT Hips
{
	OFFSET 0.00000 0.00000 0.00000
	CHANNELS 6 Xposition Yposition Zposition Zrotation Yrotation Xrotation 
	JOINT LHipJoint
	{
		OFFSET 0 0 0
		CHANNELS 3 Zrotation Yrotation Xrotation
		JOINT LeftUpLeg
		{
			OFFSET 1.30186 -1.90722 0.65024
			CHANNELS 3 Zrotation Yrotation Xrotation
			JOINT LeftLeg
			{
				OFFSET 2.56413 -7.04489 0.00000
				CHANNELS 3 Zrotation Yrotation Xrotation
				JOINT LeftFoot
				{
					OFFSET 2.79321 -7.67428 0.00000
					CHANNELS 3 Zrotation Yrotation Xrotation
					JOINT LeftToeBase
					{
						OFFSET 0.15723 -0.43198 2.08537
						CHANNELS 3 Zrotation Yrotation Xrotation
						End Site
						{
							OFFSET 0.00000 -0.00000 1.07411
						}
					}
				}
			}
		}
	}
	JOINT RHipJoint
	{
		OFFSET 0 0 0
		CHANNELS 3 Zrotation Yrotation Xrotation
		JOINT RightUpLeg
		{
			OFFSET -1.28627 -1.90723 0.65024
			CHANNELS 3 Zrotation Yrotation Xrotation
			JOINT RightLeg
			{
				OFFSET -2.56567 -7.04913 0.00000
				CHANNELS 3 Zrotation Yrotation Xrotation
				JOINT RightFoot
				{
					OFFSET -2.75597 -7.57198 0.00000
					CHANNELS 3 Zrotation Yrotation Xrotation
					JOINT RightToeBase
					{
						OFFSET -0.17500 -0.48081 2.22901
						CHANNELS 3 Zrotation Yrotation Xrotation
						End Site
						{
							OFFSET -0.00000 -0.00000 1.14762
						}
					}
				}
			}
		}
	}
	JOINT LowerBack
	{
		OFFSET 0 0 0
		CHANNELS 3 Zrotation Yrotation Xrotation
		JOINT Spine
		{
			OFFSET -0.04522 2.07467 -0.16566
			CHANNELS 3 Zrotation Yrotation Xrotation
			JOINT Spine1
			{
				OFFSET -0.01178 2.08825 -0.05393
				CHANNELS 3 Zrotation Yrotation Xrotation
				JOINT Neck
				{
					OFFSET 0 0 0
					CHANNELS 3 Zrotation Yrotation Xrotation
					JOINT Neck1
					{
						OFFSET -0.05182 1.80489 0.16014
						CHANNELS 3 Zrotation Yrotation Xrotation
						JOINT Head
						{
							OFFSET 0.14739 1.78840 -0.33342
							CHANNELS 3 Zrotation Yrotation Xrotation
							End Site
							{
								OFFSET 0.04364 1.83899 -0.13460
							}
						}
					}
				}
				JOINT LeftShoulder
				{
					OFFSET 0 0 0
					CHANNELS 3 Zrotation Yrotation Xrotation
					JOINT LeftArm
					{
						OFFSET 3.01264 1.29090 -0.06579
						CHANNELS 3 Zrotation Yrotation Xrotation
						JOINT LeftForeArm
						{
							OFFSET 5.55680 -0.00000 0.00000
							CHANNELS 3 Zrotation Yrotation Xrotation
							JOINT LeftHand
							{
								OFFSET 3.63979 -0.00000 -0.00000
								CHANNELS 3 Zrotation Yrotation Xrotation
								JOINT LeftFingerBase
								{
									OFFSET 0 0 0
									CHANNELS 3 Zrotation Yrotation Xrotation
									JOINT LeftHandIndex1
									{
										OFFSET 0.56942 -0.00000 -0.00000
										CHANNELS 3 Zrotation Yrotation Xrotation
										End Site
										{
											OFFSET 0.45908 -0.00000 -0.00000
										}
									}
								}
								JOINT LThumb
								{
									OFFSET 0 0 0
									CHANNELS 3 Zrotation Yrotation Xrotation
									End Site
									{
										OFFSET 0.46609 -0.00000 0.46609
									}
								}
							}
						}
					}
				}
				JOINT RightShoulder
				{
					OFFSET 0 0 0
					CHANNELS 3 Zrotation Yrotation Xrotation
					JOINT RightArm
					{
						OFFSET -3.15796 1.37283 -0.36748
						CHANNELS 3 Zrotation Yrotation Xrotation
						JOINT RightForeArm
						{
							OFFSET -5.34339 -0.00000 0.00000
							CHANNELS 3 Zrotation Yrotation Xrotation
							JOINT RightHand
							{
								OFFSET -3.65101 -0.00000 -0.00000
								CHANNELS 3 Zrotation Yrotation Xrotation
								JOINT RightFingerBase
								{
									OFFSET 0 0 0
									CHANNELS 3 Zrotation Yrotation Xrotation
									JOINT RightHandIndex1
									{
										OFFSET -0.69425 -0.00000 -0.00000
										CHANNELS 3 Zrotation Yrotation Xrotation
										End Site
										{
											OFFSET -0.55972 -0.00000 -0.00000
										}
									}
								}
								JOINT RThumb
								{
									OFFSET 0 0 0
									CHANNELS 3 Zrotation Yrotation Xrotation
									End Site
									{
										OFFSET -0.56827 -0.00000 0.56827
									}
								}
							}
						}
					}
				}
			}
		}
	}
}
MOTION
Frames: 6
Frame Time: .0083333
-7.0137 17.4431 -5.4854 -0.8380 -4.0419 -5.3267 0.0000 0.0000 0.0000 2.8228 -21.6540 -13.3213 3.8585 11.9697 35.6248 0.1337 7.0295 -12.6906 0.1040 -2.0794 -5.7250 0.0000 0.0000 0.0000 12.8508 10.9350 -11.3157 -4.5159 -12.8169 38.6869 -0.9257 -1.4709 -18.7640 -0.0335 1.1808 -3.2464 -3.4716 2.5321 9.7227 -0.5780 3.0333 4.2596 1.0276 1.4806 -1.1646 2.3772 3.6844 -10.8982 -7.5110 6.3447 20.9956 -2.2441 2.4348 8.6609 0.0000 -0.0000 0.0000 -80.0094 -2.5948 39.7043 30.2984 -41.1478 -11.6055 -0.0000 0.0000 -14.0835 37.6355 19.8557 14.6763 -7.1250 0.0000 -0.0000 9.9279 54.2195 2.2665 0.0000 -0.0000 0.0000 77.4033 -4.4196 17.4435 -23.4398 34.5662 -7.3863 0.0000 0.0000 2.0038 -16.7910 34.8030 -9.7718 7.1250 -0.0000 -0.0000 8.7745 5.6272 9.7022
-7.1874 17.4529 -5.5234 -0.0693 -3.3532 -5.4161 0.0000 0.0000 0.0000 1.1256 -20.2084 -14.3636 4.2419 12.4755 37.4356 0.2495 7.1278 -14.6242 0.0436 -1.3473 -3.7050 0.0000 0.0000 0.0000 12.3753 9.9309 -11.8065 -4.6186 -12.9409 39.1478 -0.9692 -0.9060 -18.9509 -0.2157 2.9902 -8.2515 -4.2584 2.4539 9.7489 -0.8805 2.8600 4.4887 1.1783 1.3818 -0.9522 2.5926 3.6725 -11.6023 -7.5998 6.3319 21.3567 -2.3040 2.4105 8.9247 0.0000 0.0000 0.0000 -80.2162 -2.5315 38.9849 30.5258 -41.3399 -11.7554 -0.0000 0.0000 -13.2338 37.5227 21.2460 15.5511 -7.1250 0.0000 -0.0000 9.7711 55.8277 2.6137 0.0000 0.0000 0.0000 77.7289 -4.1956 16.6549 -23.1567 34.2597 -7.2263 0.0000 0.0000 2.7026 -16.4776 34.6122 -9.5374 7.1250 -0.0000 -0.0000 8.9210 5.3793 9.8331
-7.3577 17.4623 -5.5633 0.3498 -2.6172 -5.5543 0.0000 0.0000 0.0000 -0.3016 -18.6674 -15.4151 4.7118 13.0517 39.5623 0.4072 6.9442 -16.5641 0.0137 -0.7567 -2.0797 0.0000 0.0000 0.0000 12.2965 8.9545 -12.1889 -4.7030 -13.0414 39.5235 -1.0094 -0.0417 -19.0132 -0.0712 1.7213 -4.7360 -4.6055 2.4127 9.7821 -1.0489 2.7800 4.7547 1.2119 1.3312 -0.6954 2.4209 3.5434 -12.0922 -7.4330 6.1661 21.5822 -2.2323 2.3190 9.0735 0.0000 0.0000 0.0000 -80.4141 -3.0093 39.0674 30.1044 -40.9827 -11.4781 -0.0000 0.0000 -12.8433 37.0034 20.6186 14.8633 -7.1250 0.0000 -0.0000 9.1969 54.9707 2.2662 0.0000 0.0000 0.0000 77.9533 -4.1157 15.8208 -22.9838 34.0711 -7.1292 0.0000 0.0000 3.1467 -16.3501 34.3584 -9.4011 7.1250 -0.0000 -0.0000 8.9589 5.1038 9.8368
-7.5225 17.4718 -5.6081 0.0687 -1.9679 -5.6272 0.0000 0.0000 0.0000 -0.9943 -16.9072 -16.5780 5.2570 13.6675 41.9214 0.5702 6.4058 -18.0263 0.0064 -0.5177 -1.4227 0.0000 0.0000 0.0000 13.0207 8.1299 -12.5646 -4.7637 -13.1126 39.7915 -1.0244 0.6068 -18.9415 -0.0002 0.0900 -0.2474 -4.2606 2.4108 10.0165 -0.9533 2.7955 4.7202 1.1063 1.3465 -0.8506 2.2736 3.2965 -11.7404 -7.3762 5.8388 21.5470 -2.2310 2.1705 8.9703 0.0000 -0.0000 0.0000 -80.3862 -3.2409 40.2137 29.2997 -40.2855 -10.9539 -0.0000 0.0000 -13.2259 36.1993 19.0772 13.4527 -7.1250 0.0000 -0.0000 8.3603 52.9861 1.6518 0.0000 -0.0000 0.0000 78.0120 -4.6321 15.0793 -22.8527 33.9273 -7.0559 0.0000 0.0000 3.2846 -16.1630 33.9363 -9.1909 7.1250 -0.0000 -0.0000 9.0099 4.6507 9.8289
-7.6777 17.4913 -5.6514 -0.0706 -1.3341 -5.6506 0.0000 0.0000 0.0000 -1.9947 -15.1407 -17.7584 5.8785 14.3095 44.4920 0.6541 6.1062 -18.7070 0.0501 -1.4438 -3.9707 0.0000 0.0000 0.0000 13.5671 7.2111 -13.0004 -4.8056 -13.1615 39.9759 -1.0121 0.8916 -18.7393 -0.0008 -0.1867 0.5129 -4.1769 2.2967 10.3572 -0.8546 2.6310 4.5719 1.1636 1.2722 -1.1839 2.1276 3.1587 -11.3096 -7.2766 5.6466 21.4427 -2.1991 2.0922 8.8358 -0.0000 0.0000 0.0000 -80.2468 -2.9124 40.9583 29.0025 -40.0229 -10.7623 -0.0000 0.0000 -13.4881 36.1794 19.6857 13.8397 -7.1250 0.0000 -0.0000 8.3140 53.6938 1.7868 -0.0000 0.0000 0.0000 77.8998 -5.0893 14.8414 -22.6335 33.6856 -6.9340 0.0000 0.0000 3.1325 -15.8956 33.6430 -8.9656 7.1250 -0.0000 -0.0000 9.1226 4.3114 9.9050
-7.8341 17.5126 -5.6985 -0.1805 -0.7626 -5.5230 0.0000 0.0000 0.0000 -3.0427 -13.4874 -19.0556 6.5686 14.9576 47.2233 0.6750 6.0944 -18.9183 0.1855 -2.7743 -7.6509 0.0000 0.0000 0.0000 14.1302 6.4634 -13.5678 -4.8377 -13.1987 40.1169 -0.9788 0.6548 -18.4942 -0.0040 0.4090 -1.1238 -4.2907 2.1155 10.5158 -0.7453 2.3738 4.5522 1.3646 1.1439 -1.2862 1.9480 3.1501 -11.6034 -7.0638 5.6346 21.6041 -2.0953 2.0830 8.9341 -0.0000 0.0000 0.0000 -80.4732 -2.9517 40.6190 28.5147 -39.5858 -10.4501 -0.0000 0.0000 -12.7138 36.1352 20.9453 14.6285 -7.1250 0.0000 -0.0000 8.1976 55.1508 2.0533 -0.0000 0.0000 0.0000 77.7127 -5.1010 14.8978 -22.4302 33.4598 -6.8215 0.0000 0.0000 2.8784 -15.6032 33.3039 -8.7178 7.1250 -0.0000 -0.0000 9.2455 3.9230 9.9836
